<?xml version="1.0" encoding="utf-8"?>
<!DOCTYPE svg PUBLIC "-//W3C//DTD SVG 1.1//EN"
 "http://www.w3.org/Graphics/SVG/1.1/DTD/svg11.dtd">
<svg version="1.1" xmlns="http://www.w3.org/2000/svg"
xmlns:xlink="http://www.w3.org/1999/xlink"
width="4in" height="4in"
viewBox="0 0 3 2"
preserveAspectRatio="xMidYMid">

	<defs>
		<g id = "poly">
			<path
				d  =	"M 1.2999999999999998 , 0.8
				L 1.3935822227524088 , 0.5428849561253843
				1.6305407289332279 , 0.4060768987951168
				1.9 , 0.45358983848622453
				2.0758770483143634 , 0.6631919426697325
				2.0758770483143634 , 0.9368080573302675
				1.9000000000000001 , 1.1464101615137754
				1.6305407289332279 , 1.1939231012048834
				1.3935822227524088 , 1.057115043874616 
				1.2999999999999998 , 0.8
				M 1.7, 0.8 
				L 1.2999999999999998 , 0.8
				M 1.7, 0.8 
				L 1.3935822227524088 , 0.5428849561253843
				M 1.7, 0.8 
				L 1.6305407289332279 , 0.4060768987951168
				M 1.7, 0.8 
				L 1.9 , 0.45358983848622453
				M 1.7, 0.8 
				L 2.0758770483143634 , 0.6631919426697325
				M 1.7, 0.8 
				L 2.0758770483143634 , 0.9368080573302675
				M 1.7, 0.8 
				L 1.9000000000000001 , 1.1464101615137754
				M 1.7, 0.8 
				L 1.6305407289332279 , 1.1939231012048834
				M 1.7, 0.8 
				L 1.3935822227524088 , 1.057115043874616 
				Z"
				fill ="none"
				stroke-width ="0.01"
				stroke ="black">
				<animateTransform
					attributeName = "transform"
					type ="rotate"
					from="0 1.7 0.8"
					to="-360 1.7 0.8"
					dur="5s"
					repeatCount="indefinite" />
			</path>
		</g>
	</defs>

	<defs>
		<g id = "rect_with_polys">
			<rect x="1.65" y="0.94" width="1.2" height="0.08"
			fill="red" transform ="rotate(20 2.2 1)"/>
			<use xlink:href ="#poly" transform="translate(0.03, 0)" />
			<use xlink:href ="#poly" transform="translate(1.07, 0.39)" />
		</g>
	</defs>

	<defs>
		<g id = "blue">
			<use xlink:href ="#rect_with_polys" transform = "translate(0, 0.05)" />
			<polygon points="2.05,1.90 2.20,1 2.35,1.90"
			fill="blue"/>
		</g>
	</defs>

	<defs>
		<g id = "pink">
			<use xlink:href ="#rect_with_polys" transform = "translate(0, 0.05)" />
			<polygon points="2.05,1.90 2.20,1 2.35,1.90"
			fill="pink"/>
		</g>
	</defs>

	<defs>
		<g id = "green">
			<use xlink:href ="#rect_with_polys" transform = "translate(0, 0.05)" />
			<polygon points="2.05,1.90 2.20,1 2.35,1.90"
			fill="green"/>
		</g>
	</defs>

	<use xlink:href ="#pink" transform = "translate(-0.9, -0.7) scale(0.7,0.7)" />
	<use xlink:href ="#blue" transform = "translate(-0.5, 0.1) scale(1,1)" />
	<use xlink:href ="#green" transform = "translate(1.3, -0.5) scale(0.5,0.5)" />
</svg>
